
<svg xmlns="http://www.w3.org/2000/svg" xmlns:xlink="http://www.w3.org/1999/xlink" width="100%" height="100%" viewBox="0 0 5600 5870"><g fill="#FFFFFF" stroke="#FFFFFF" stroke-width="1"><circle cx="2653" cy="1528" r="5"/><circle cx="2619" cy="1590" r="5"/><circle cx="2702" cy="1679" r="5"/><circle cx="2721" cy="1789" r="5"/><circle cx="2152" cy="2120" r="5"/><circle cx="1606" cy="1945" r="5"/><circle cx="1673" cy="1763" r="5"/><circle cx="2205" cy="2280" r="5"/><circle cx="2045" cy="2114" r="5"/><circle cx="1606" cy="2187" r="5"/><circle cx="1643" cy="2193" r="5"/><circle cx="1913" cy="2398" r="5"/><circle cx="1932" cy="2402" r="5"/><circle cx="1925" cy="2251" r="5"/><circle cx="1930" cy="1658" r="5"/><circle cx="3364" cy="2889" r="5"/><circle cx="3511" cy="2918" r="5"/><circle cx="2754" cy="3275" r="5"/><circle cx="2832" cy="3427" r="5"/><circle cx="2827" cy="3356" r="5"/><circle cx="2859" cy="3389" r="5"/><circle cx="2879" cy="3431" r="5"/><circle cx="1353" cy="4341" r="5"/><circle cx="1339" cy="4352" r="5"/><circle cx="3678" cy="2793" r="5"/><circle cx="4787" cy="2813" r="5"/><circle cx="3014" cy="3227" r="5"/><circle cx="3013" cy="3237" r="5"/><circle cx="3034" cy="3221" r="5"/><circle cx="3030" cy="3236" r="5"/><circle cx="3061" cy="2585" r="5"/><circle cx="3042" cy="2516" r="5"/><circle cx="4316" cy="2223" r="5"/><circle cx="4754" cy="2377" r="5"/><circle cx="3554" cy="604" r="5"/><circle cx="3630" cy="633" r="5"/><circle cx="2482" cy="2496" r="5"/><circle cx="1623" cy="2541" r="5"/><circle cx="2557" cy="4240" r="5"/><circle cx="2607" cy="4430" r="5"/><circle cx="757" cy="2620" r="5"/><circle cx="1341" cy="2541" r="5"/><circle cx="755" cy="2206" r="5"/><circle cx="1071" cy="2629" r="5"/><circle cx="1191" cy="2459" r="5"/><circle cx="1288" cy="3348" r="5"/><circle cx="1277" cy="3241" r="5"/><circle cx="803" cy="3193" r="5"/><circle cx="1062" cy="3228" r="5"/><circle cx="1243" cy="3218" r="5"/><circle cx="1257" cy="3330" r="5"/><circle cx="1291" cy="3244" r="5"/><circle cx="1342" cy="3283" r="5"/><circle cx="2508" cy="657" r="5"/><circle cx="3003" cy="669" r="5"/><circle cx="2076" cy="3417" r="5"/><circle cx="2247" cy="3229" r="5"/><circle cx="1925" cy="3268" r="5"/><circle cx="2292" cy="3240" r="5"/><circle cx="2165" cy="3145" r="5"/><circle cx="1964" cy="3145" r="5"/><circle cx="3385" cy="4368" r="5"/><circle cx="3486" cy="3955" r="5"/><circle cx="3300" cy="4006" r="5"/><circle cx="3170" cy="4032" r="5"/><circle cx="2875" cy="1482" r="5"/><circle cx="3132" cy="1209" r="5"/><circle cx="2964" cy="1036" r="5"/><circle cx="2889" cy="960" r="5"/><circle cx="2226" cy="1815" r="5"/><circle cx="2261" cy="1687" r="5"/><circle cx="2380" cy="1134" r="5"/><circle cx="2511" cy="1072" r="5"/><circle cx="2756" cy="1257" r="5"/><circle cx="3054" cy="1539" r="5"/><circle cx="3043" cy="1432" r="5"/><circle cx="2257" cy="1419" r="5"/><circle cx="4022" cy="1525" r="5"/><circle cx="3981" cy="994" r="5"/><circle cx="4282" cy="1496" r="5"/><circle cx="1505" cy="1494" r="5"/><circle cx="2243" cy="4886" r="5"/><circle cx="1649" cy="2761" r="5"/><circle cx="1496" cy="2983" r="5"/><circle cx="1521" cy="3281" r="5"/><circle cx="1323" cy="3066" r="5"/><circle cx="2025" cy="4656" r="5"/><circle cx="1766" cy="4126" r="5"/><circle cx="4070" cy="4022" r="5"/><circle cx="3556" cy="3453" r="5"/><circle cx="3436" cy="3454" r="5"/><circle cx="3353" cy="3503" r="5"/><circle cx="4627" cy="3499" r="5"/><circle cx="4133" cy="3728" r="5"/><circle cx="4274" cy="3737" r="5"/><circle cx="3957" cy="3868" r="5"/><circle cx="3537" cy="3680" r="5"/><circle cx="3492" cy="3614" r="5"/><circle cx="3258" cy="1903" r="5"/><circle cx="3463" cy="1809" r="5"/><circle cx="2981" cy="1936" r="5"/><circle cx="3145" cy="1730" r="5"/><circle cx="3088" cy="2303" r="5"/><circle cx="1945" cy="673" r="5"/><circle cx="2506" cy="2603" r="5"/><circle cx="3794" cy="2665" r="5"/></g><g fill="#FFFFFF" stroke="#FFFFFF" stroke-width="2"><circle cx="2526" cy="1463" r="10"/><circle cx="2506" cy="1542" r="10"/><circle cx="1866" cy="1211" r="10"/><circle cx="1959" cy="1389" r="10"/><circle cx="1938" cy="1510" r="10"/><circle cx="1834" cy="1731" r="10"/><circle cx="1915" cy="1917" r="10"/><circle cx="2045" cy="1892" r="10"/><circle cx="3383" cy="2851" r="10"/><circle cx="2473" cy="3301" r="10"/><circle cx="1192" cy="4293" r="10"/><circle cx="3753" cy="3538" r="10"/><circle cx="3022" cy="3224" r="10"/><circle cx="2962" cy="3065" r="10"/><circle cx="2919" cy="2901" r="10"/><circle cx="2941" cy="2732" r="10"/><circle cx="3026" cy="2583" r="10"/><circle cx="4178" cy="2111" r="10"/><circle cx="4198" cy="2853" r="10"/><circle cx="4181" cy="2260" r="10"/><circle cx="4523" cy="2465" r="10"/><circle cx="2458" cy="3554" r="10"/><circle cx="2420" cy="3946" r="10"/><circle cx="2396" cy="3840" r="10"/><circle cx="2427" cy="3823" r="10"/><circle cx="2455" cy="3804" r="10"/><circle cx="2443" cy="4373" r="10"/><circle cx="2415" cy="4282" r="10"/><circle cx="1320" cy="2613" r="10"/><circle cx="916" cy="2136" r="10"/><circle cx="1091" cy="2500" r="10"/><circle cx="610" cy="1927" r="10"/><circle cx="763" cy="3478" r="10"/><circle cx="2140" cy="3343" r="10"/><circle cx="2950" cy="3996" r="10"/><circle cx="3079" cy="4149" r="10"/><circle cx="2602" cy="3934" r="10"/><circle cx="2610" cy="1141" r="10"/><circle cx="3036" cy="879" r="10"/><circle cx="2901" cy="867" r="10"/><circle cx="4130" cy="1314" r="10"/><circle cx="3628" cy="1087" r="10"/><circle cx="3877" cy="1215" r="10"/><circle cx="1427" cy="1354" r="10"/><circle cx="2334" cy="4826" r="10"/><circle cx="1800" cy="3437" r="10"/><circle cx="1516" cy="4560" r="10"/><circle cx="1661" cy="4475" r="10"/><circle cx="2054" cy="4250" r="10"/><circle cx="3694" cy="3726" r="10"/><circle cx="4588" cy="3907" r="10"/><circle cx="3369" cy="3624" r="10"/><circle cx="3334" cy="1657" r="10"/><circle cx="3192" cy="2312" r="10"/><circle cx="3238" cy="2247" r="10"/><circle cx="3343" cy="2157" r="10"/><circle cx="3340" cy="2269" r="10"/><circle cx="1731" cy="764" r="10"/><circle cx="2684" cy="3060" r="10"/><circle cx="2429" cy="2947" r="10"/><circle cx="2666" cy="2894" r="10"/><circle cx="2650" cy="2889" r="10"/><circle cx="2669" cy="2839" r="10"/><circle cx="2463" cy="2790" r="10"/><circle cx="3604" cy="3102" r="10"/><circle cx="3514" cy="3077" r="10"/><circle cx="3324" cy="2699" r="10"/><circle cx="3604" cy="2683" r="10"/><circle cx="3943" cy="2571" r="10"/></g><g fill="#FFFFFF" stroke="#FFFFFF" stroke-width="3"><circle cx="2717" cy="1881" r="15"/><circle cx="2546" cy="3148" r="15"/><circle cx="2792" cy="3416" r="15"/><circle cx="3104" cy="2833" r="15"/><circle cx="2990" cy="2675" r="15"/><circle cx="2329" cy="4040" r="15"/><circle cx="2422" cy="3933" r="15"/><circle cx="2510" cy="3644" r="15"/><circle cx="2555" cy="4015" r="15"/><circle cx="2335" cy="3600" r="15"/><circle cx="3478" cy="603" r="15"/><circle cx="951" cy="2718" r="15"/><circle cx="1907" cy="2962" r="15"/><circle cx="1995" cy="2909" r="15"/><circle cx="3761" cy="1376" r="15"/><circle cx="1699" cy="3482" r="15"/><circle cx="1726" cy="4580" r="15"/><circle cx="1896" cy="4186" r="15"/><circle cx="2618" cy="2792" r="15"/><circle cx="3591" cy="2505" r="15"/><circle cx="1677" cy="3051" r="20"/><circle cx="2117" cy="3231" r="10"/><circle cx="918" cy="2661" r="20"/><circle cx="2223" cy="3190" r="20"/><circle cx="2235" cy="3211" r="20"/></g></svg>